<svg width="2004" height="1335" viewBox="0 0 2004 1335" fill="none" xmlns="http://www.w3.org/2000/svg">
<path d="M37.5 1026L1.5 1066L0.5 0.5H2003.5V629.5L1984 614L1972.5 588.5L1948 555L1920 534.5L1908.5 523H1894L1871 506L1825 484.5L1791.5 476.5H1745L1705.5 484.5H1651.5H1614.5H1564L1501.5 492L1442 506L1397.5 523L1357.5 541L1326.5 555L1284.5 588.5L1248.5 614L1216.5 647.5L1184 686L1156 727L1136.5 763L1121.5 788.5L1103.5 835L1091.5 876L1080 915.5L1074 982.5V1048V1107L1085.5 1159.5L1107 1222.5L1122.5 1262.5L1143 1304.5L1165 1334H878.5L840 1278L837.5 1262.5V1242V1222.5L840 1194.5L837.5 1167.5L818.5 1136.5L788.5 1107L760.5 1087.5L731 1066L701.5 1058H673L655 1066L634.5 1076L629.5 1093L625.5 1107V1127.5V1150.5L634.5 1177.5L646 1200.5L655 1222.5L668 1242L684.5 1262.5L701.5 1278L731 1288H760.5L788.5 1294.5L808 1304.5V1313.5L818.5 1322.5L826 1334H374L438 1159.5L450 1136.5L457.5 1127.5L493.5 1113.5L525.5 1087.5L539.5 1066L547.5 1036.5L555 1005.5V976V937.5L547.5 904L518 876L487 865.5L457.5 876L438 894L419 910.5L403.5 937.5L388 962L374 994V1026V1036.5V1053L394.5 1087.5L403.5 1113.5V1127.5L394.5 1150.5L322.5 1334H1.5V1113.5L87.5 1045.5L143 994L199.5 937.5L247 894L322.5 824.5L348.5 801.5L362.5 792.5L374 784.5H388H403.5H419H438H450L469 776L487 761.5L501 746L518 727L532 705L547.5 686L555 669L564 647.5V623L555 597.5L547.5 588.5L532 569H510H487L457.5 579.5L438 588.5L419 597.5L403.5 610L388 623L374 636L362.5 647.5L348.5 660V686V705V720.5L339.5 746L322.5 768L303.5 784.5L281.5 801.5L247 832L199.5 876L165 904L126.5 937.5L87.5 976L37.5 1026Z" fill="black" stroke="black"/>
</svg>
